<svg width="11" height="13" viewBox="0 0 11 13" fill="none" xmlns="http://www.w3.org/2000/svg">
<g clip-path="url(#clip0_15_976)">
<path d="M4.91531 0.303319L4.9146 0.304025L0.397167 4.82146C0.0459078 5.17585 0.0484489 5.7479 0.402842 6.09916C0.43085 6.12691 0.460637 6.15281 0.492033 6.17669C0.869832 6.42998 1.37508 6.3747 1.68915 6.04569L4.19181 3.55206C4.32451 3.4195 4.43578 3.2671 4.52159 3.10032L4.66614 2.82475L4.66615 11.7015C4.64703 12.1561 4.95786 12.5584 5.40249 12.6547C5.89503 12.7346 6.35908 12.4001 6.43896 11.9075C6.44734 11.8558 6.45121 11.8035 6.45053 11.7512V2.84282L6.54088 3.03707C6.6294 3.22661 6.75015 3.39931 6.89776 3.54754L9.3959 6.04569C9.70998 6.3747 10.2152 6.42998 10.593 6.17669C10.9956 5.8819 11.083 5.31657 10.7882 4.91395C10.7644 4.88143 10.7384 4.85051 10.7105 4.82146L6.19304 0.304025C5.8404 -0.0489856 5.26835 -0.0492955 4.91531 0.303319Z" fill="white"/>
</g>
<defs>
<clipPath id="clip0_15_976">
<rect width="11" height="13" fill="white"/>
</clipPath>
</defs>
</svg>
