<svg width="19" height="24" viewBox="0 0 19 24" fill="none" xmlns="http://www.w3.org/2000/svg">
<g clip-path="url(#clip0_15_829)">
<path d="M15.867 12.5142C15.867 12.6152 15.7154 15.5966 19 17.1631C18.3936 19.0328 16.2713 23.1764 13.7952 23.1764C12.3803 23.1764 11.5718 22.2668 9.95479 22.2668C8.28723 22.2668 7.37766 23.1764 6.11436 23.1764C3.68883 23.2775 1.36436 18.7296 0.707447 16.8599C0.202128 15.445 0 14.0807 0 12.7668C0 8.26947 2.98138 6.0966 5.81117 6.04607C7.17553 6.04607 8.89362 7.00617 9.6516 7.00617C10.359 7.00617 12.3298 5.84394 14.1489 5.99553C16.0186 6.14713 17.4335 6.85458 18.3936 8.21894C16.7261 9.28011 15.867 10.6445 15.867 12.5142ZM13.0372 4.22692C12.0266 5.38915 10.8138 6.04607 9.5 5.945C9.39894 4.58064 9.90426 3.31734 10.8138 2.3067C11.6223 1.39713 13.0372 0.639149 14.25 0.538086C14.25 1.09394 14.4016 2.6099 13.0372 4.22692Z" fill="#1F4B43"/>
</g>
<defs>
<clipPath id="clip0_15_829">
<rect width="19" height="24" fill="white"/>
</clipPath>
</defs>
</svg>
