<svg width="15" height="13" viewBox="0 0 15 13" fill="none" xmlns="http://www.w3.org/2000/svg">
<g clip-path="url(#clip0_15_1009)">
<path d="M0.877444 5.81827H12.8881L8.28902 1.43903C8.0482 1.20971 8.03887 0.828723 8.26825 0.587973C8.49733 0.347524 8.87842 0.337894 9.11954 0.567209L14.3719 5.56879C14.5991 5.79629 14.7247 6.09844 14.7247 6.42015C14.7247 6.74154 14.5991 7.04399 14.3613 7.28142L9.11925 12.2728C9.00275 12.3838 8.85344 12.4389 8.70413 12.4389C8.54519 12.4389 8.38625 12.3763 8.26795 12.2521C8.03857 12.0113 8.0479 11.6306 8.28872 11.4013L12.9071 7.02202H0.877444C0.54511 7.02202 0.275391 6.75238 0.275391 6.42015C0.275391 6.08791 0.54511 5.81827 0.877444 5.81827Z" fill="#1A1A1A"/>
</g>
<defs>
<clipPath id="clip0_15_1009">
<rect width="15" height="12.84" fill="white"/>
</clipPath>
</defs>
</svg>
