<svg width="150" height="42" viewBox="0 0 150 42" fill="none" xmlns="http://www.w3.org/2000/svg">
<g clip-path="url(#clip0_15_1042)">
<path fill-rule="evenodd" clip-rule="evenodd" d="M18.3353 11.5196L18.3265 42.0011L21.5809 41.9921L21.5719 31.3522L27.3211 31.3431L27.312 41.9921H30.7184V0.643066L27.3029 2.90773L27.2987 28.1281L21.6077 28.1092L21.6122 5.9038L0 18.4054L0.0290845 35.5419L3.44454 35.5512L3.44896 20.3014L18.3353 11.5196Z" fill="white"/>
<path fill-rule="evenodd" clip-rule="evenodd" d="M12.4253 41.8495V18.6934L9.06421 20.6633L9.13515 38.7048L0.0515215 38.6335L0.00662231 41.8313L12.4253 41.8495Z" fill="white"/>
<path d="M54.2941 24.7042V13.5048H57.0439V24.7042C57.0439 25.7665 56.8166 26.6715 56.362 27.4188C55.9073 28.1662 55.2877 28.7377 54.5031 29.1334C53.7184 29.529 52.8275 29.7268 51.8302 29.7268C50.8109 29.7268 49.9053 29.5546 49.1134 29.2102C48.3287 28.8659 47.7128 28.3384 47.2654 27.6277C46.8181 26.9169 46.5945 26.0157 46.5945 24.924H49.3663C49.3663 25.5541 49.4653 26.0633 49.6633 26.4517C49.8687 26.8327 50.1547 27.1111 50.5213 27.2869C50.8953 27.4555 51.3316 27.5397 51.8302 27.5397C52.3069 27.5397 52.7285 27.4335 53.0952 27.221C53.4691 27.0012 53.7625 26.6824 53.9751 26.2648C54.1878 25.8398 54.2941 25.3196 54.2941 24.7042Z" fill="white"/>
<path d="M67.1194 26.7044V17.6152H69.7813V29.507H67.2734L67.1194 26.7044ZM67.4934 24.2316L68.3843 24.2096C68.3843 25.0082 68.2963 25.7446 68.1204 26.4187C67.9444 27.0854 67.673 27.668 67.3064 28.1662C66.9397 28.6571 66.4705 29.0418 65.8984 29.3202C65.3265 29.5913 64.6408 29.7268 63.8416 29.7268C63.2623 29.7268 62.7307 29.6425 62.2467 29.474C61.7627 29.3055 61.3447 29.0454 60.9928 28.6937C60.6481 28.3421 60.3805 27.8841 60.1898 27.3199C59.9991 26.7557 59.9038 26.0816 59.9038 25.2977V17.6152H62.5546V25.3196C62.5546 25.7519 62.606 26.1146 62.7086 26.4077C62.8113 26.6935 62.9506 26.9242 63.1266 27.1001C63.3026 27.2759 63.508 27.4005 63.7426 27.4738C63.9772 27.547 64.2265 27.5836 64.4905 27.5836C65.2459 27.5836 65.8398 27.4372 66.2725 27.1441C66.7124 26.8436 67.0241 26.4407 67.2074 25.9351C67.3981 25.4296 67.4934 24.8617 67.4934 24.2316Z" fill="white"/>
<path d="M79.1745 26.2868C79.1745 26.023 79.1085 25.7849 78.9765 25.5724C78.8445 25.3526 78.5918 25.1548 78.2175 24.9789C77.8515 24.8031 77.3085 24.6418 76.59 24.4954C75.9593 24.3561 75.3802 24.1912 74.852 24.0007C74.3314 23.803 73.8841 23.5648 73.51 23.2864C73.1361 23.008 72.8464 22.6783 72.6411 22.2973C72.4358 21.9162 72.3331 21.4766 72.3331 20.9784C72.3331 20.4948 72.4395 20.0368 72.6521 19.6045C72.8647 19.1722 73.1691 18.7912 73.5651 18.4615C73.961 18.1318 74.4413 17.8718 75.006 17.6813C75.5783 17.4907 76.2157 17.3954 76.92 17.3954C77.9175 17.3954 78.7717 17.5639 79.4827 17.901C80.2012 18.2308 80.751 18.6814 81.1328 19.2529C81.5138 19.817 81.705 20.4545 81.705 21.1652H79.0537C79.0537 20.8502 78.9728 20.557 78.8115 20.286C78.6578 20.0075 78.423 19.7841 78.108 19.6156C77.7922 19.4397 77.3962 19.3518 76.92 19.3518C76.4655 19.3518 76.0875 19.4251 75.7868 19.5715C75.4935 19.7108 75.2737 19.894 75.1267 20.1211C74.9877 20.3482 74.918 20.5974 74.918 20.8684C74.918 21.0663 74.9547 21.2458 75.0278 21.407C75.1088 21.5608 75.2408 21.7037 75.4238 21.8356C75.6075 21.9602 75.8565 22.0774 76.1723 22.1873C76.4948 22.2973 76.8983 22.4035 77.382 22.5061C78.291 22.6966 79.0718 22.942 79.725 23.2424C80.385 23.5355 80.8905 23.9165 81.243 24.3854C81.5947 24.8471 81.771 25.4332 81.771 26.1439C81.771 26.6715 81.657 27.155 81.4297 27.5947C81.21 28.027 80.8867 28.4043 80.4615 28.7267C80.0362 29.0417 79.527 29.2872 78.933 29.4631C78.3465 29.6389 77.6865 29.7268 76.953 29.7268C75.8752 29.7268 74.962 29.5363 74.2141 29.1553C73.4661 28.767 72.8978 28.2724 72.5091 27.6716C72.1278 27.0634 71.9371 26.4334 71.9371 25.7812H74.5C74.5294 26.2721 74.665 26.6642 74.907 26.9573C75.156 27.243 75.4643 27.4518 75.831 27.5836C76.2053 27.7082 76.59 27.7705 76.986 27.7705C77.4623 27.7705 77.862 27.7082 78.1845 27.5836C78.5078 27.4518 78.753 27.2759 78.9217 27.0562C79.0905 26.829 79.1745 26.5726 79.1745 26.2868Z" fill="white"/>
<path d="M89.547 17.6152V19.5496H82.8375V17.6152H89.547ZM84.7732 14.7028H87.4245V26.2208C87.4245 26.5872 87.4755 26.8693 87.5782 27.0671C87.6885 27.2576 87.8385 27.3859 88.029 27.4518C88.2202 27.5177 88.4437 27.5507 88.7002 27.5507C88.8832 27.5507 89.0595 27.5397 89.2282 27.5177C89.397 27.4957 89.5327 27.4738 89.6355 27.4518L89.646 29.474C89.4262 29.54 89.1697 29.5986 88.8765 29.6499C88.59 29.7012 88.26 29.7268 87.8865 29.7268C87.2775 29.7268 86.739 29.6206 86.2695 29.4081C85.8 29.1883 85.4332 28.8329 85.1692 28.342C84.9052 27.8511 84.7732 27.199 84.7732 26.3857V14.7028Z" fill="white"/>
<path d="M102.439 20.1871V22.3741H93.936V20.1871H102.439ZM94.6177 13.5048V29.507H91.857V13.5048H94.6177ZM104.561 13.5048V29.507H101.812V13.5048H104.561Z" fill="white"/>
<path d="M107.081 23.693V23.4403C107.081 22.583 107.205 21.788 107.454 21.0553C107.704 20.3152 108.063 19.6741 108.533 19.132C109.009 18.5824 109.588 18.1575 110.27 17.857C110.959 17.5493 111.737 17.3954 112.602 17.3954C113.474 17.3954 114.252 17.5493 114.934 17.857C115.623 18.1575 116.207 18.5824 116.683 19.132C117.16 19.6741 117.523 20.3152 117.772 21.0553C118.021 21.788 118.146 22.583 118.146 23.4403V23.693C118.146 24.5503 118.021 25.3453 117.772 26.0779C117.523 26.8107 117.16 27.4518 116.683 28.0013C116.207 28.5435 115.627 28.9685 114.945 29.2762C114.263 29.5766 113.489 29.7268 112.624 29.7268C111.751 29.7268 110.971 29.5766 110.281 29.2762C109.599 28.9685 109.02 28.5435 108.543 28.0013C108.067 27.4518 107.704 26.8107 107.454 26.0779C107.205 25.3453 107.081 24.5503 107.081 23.693ZM109.731 23.4403V23.693C109.731 24.2279 109.787 24.7335 109.896 25.2097C110.006 25.686 110.179 26.1036 110.413 26.4626C110.648 26.8217 110.948 27.1038 111.315 27.3089C111.682 27.514 112.118 27.6166 112.624 27.6166C113.115 27.6166 113.54 27.514 113.9 27.3089C114.266 27.1038 114.567 26.8217 114.802 26.4626C115.037 26.1036 115.209 25.686 115.319 25.2097C115.436 24.7335 115.495 24.2279 115.495 23.693V23.4403C115.495 22.9127 115.436 22.4145 115.319 21.9455C115.209 21.4693 115.033 21.048 114.791 20.6816C114.556 20.3152 114.256 20.0295 113.889 19.8244C113.53 19.6119 113.101 19.5056 112.602 19.5056C112.103 19.5056 111.671 19.6119 111.304 19.8244C110.945 20.0295 110.648 20.3152 110.413 20.6816C110.179 21.048 110.006 21.4693 109.896 21.9455C109.787 22.4145 109.731 22.9127 109.731 23.4403Z" fill="white"/>
<path d="M123.019 20.0332V29.507H120.368V17.6152H122.864L123.019 20.0332ZM122.59 23.1215L121.688 23.1106C121.688 22.2899 121.79 21.5316 121.996 20.8355C122.201 20.1395 122.501 19.5349 122.897 19.022C123.293 18.5018 123.785 18.1025 124.371 17.8241C124.965 17.5384 125.651 17.3954 126.428 17.3954C126.971 17.3954 127.465 17.476 127.913 17.6372C128.368 17.7911 128.76 18.0366 129.09 18.3736C129.427 18.7106 129.684 19.1429 129.86 19.6705C130.043 20.198 130.135 20.8355 130.135 21.5828V29.507H127.484V21.8137C127.484 21.2348 127.397 20.7805 127.22 20.4508C127.052 20.1211 126.806 19.8866 126.483 19.7474C126.168 19.6009 125.79 19.5276 125.351 19.5276C124.852 19.5276 124.427 19.6229 124.075 19.8134C123.73 20.0039 123.448 20.264 123.227 20.5937C123.007 20.9234 122.846 21.3044 122.744 21.7367C122.641 22.169 122.59 22.6306 122.59 23.1215ZM129.97 22.4181L128.727 22.6929C128.727 21.9748 128.826 21.2971 129.024 20.6596C129.23 20.0149 129.527 19.4507 129.915 18.9671C130.311 18.4762 130.799 18.0915 131.378 17.8131C131.957 17.5347 132.621 17.3954 133.369 17.3954C133.978 17.3954 134.52 17.4797 134.997 17.6482C135.481 17.8094 135.892 18.0659 136.229 18.4176C136.566 18.7693 136.822 19.2272 136.999 19.7914C137.175 20.3482 137.263 21.0223 137.263 21.8137V29.507H134.601V21.8026C134.601 21.2018 134.513 20.7366 134.337 20.4069C134.168 20.0771 133.926 19.85 133.611 19.7254C133.295 19.5936 132.918 19.5276 132.478 19.5276C132.067 19.5276 131.705 19.6046 131.389 19.7585C131.081 19.905 130.821 20.1138 130.608 20.3848C130.396 20.6486 130.234 20.9527 130.124 21.2971C130.021 21.6415 129.97 22.0151 129.97 22.4181Z" fill="white"/>
<path d="M145.237 29.7268C144.357 29.7268 143.562 29.584 142.85 29.2982C142.147 29.0051 141.545 28.5985 141.046 28.0783C140.555 27.5581 140.177 26.9462 139.913 26.2429C139.649 25.5395 139.517 24.7811 139.517 23.9678V23.5282C139.517 22.5976 139.653 21.755 139.924 21.0004C140.196 20.2456 140.573 19.6009 141.058 19.066C141.541 18.5238 142.114 18.1099 142.774 17.8241C143.433 17.5384 144.148 17.3954 144.918 17.3954C145.769 17.3954 146.513 17.5384 147.151 17.8241C147.789 18.1099 148.317 18.5128 148.735 19.033C149.16 19.546 149.476 20.1577 149.681 20.8684C149.893 21.5792 150 22.3632 150 23.2204V24.3525H140.804V22.4511H147.382V22.2423C147.367 21.766 147.272 21.3191 147.096 20.9015C146.927 20.4838 146.667 20.1467 146.315 19.8903C145.964 19.6339 145.494 19.5056 144.908 19.5056C144.467 19.5056 144.075 19.6009 143.73 19.7914C143.393 19.9746 143.11 20.242 142.883 20.5937C142.656 20.9454 142.48 21.3703 142.355 21.8686C142.238 22.3595 142.18 22.9127 142.18 23.5282V23.9678C142.18 24.488 142.249 24.9716 142.388 25.4185C142.535 25.8582 142.747 26.2429 143.026 26.5726C143.305 26.9023 143.642 27.1624 144.038 27.3529C144.434 27.536 144.885 27.6277 145.391 27.6277C146.029 27.6277 146.597 27.4994 147.096 27.243C147.595 26.9865 148.027 26.6239 148.394 26.1549L149.791 27.5068C149.534 27.8804 149.2 28.2395 148.79 28.5839C148.379 28.9209 147.877 29.1956 147.284 29.4081C146.696 29.6206 146.014 29.7268 145.237 29.7268Z" fill="white"/>
</g>
<defs>
<clipPath id="clip0_15_1042">
<rect width="150" height="42" fill="white"/>
</clipPath>
</defs>
</svg>
