<svg width="15" height="13" viewBox="0 0 15 13" fill="none" xmlns="http://www.w3.org/2000/svg">
<g clip-path="url(#clip0_15_1019)">
<path d="M0.877444 5.81815H12.8881L8.28902 1.43891C8.0482 1.20959 8.03887 0.828601 8.26825 0.587851C8.49733 0.347402 8.87842 0.337772 9.11954 0.567087L14.3719 5.56867C14.5991 5.79617 14.7247 6.09832 14.7247 6.42003C14.7247 6.74142 14.5991 7.04387 14.3613 7.2813L9.11925 12.2727C9.00275 12.3836 8.85344 12.4388 8.70413 12.4388C8.54519 12.4388 8.38625 12.3762 8.26795 12.2519C8.03857 12.0112 8.0479 11.6305 8.28872 11.4012L12.9071 7.0219H0.877444C0.54511 7.0219 0.275391 6.75226 0.275391 6.42003C0.275391 6.08779 0.54511 5.81815 0.877444 5.81815Z" fill="#1F4B43"/>
</g>
<defs>
<clipPath id="clip0_15_1019">
<rect width="15" height="12.84" fill="white"/>
</clipPath>
</defs>
</svg>
