<svg width="41" height="40" viewBox="0 0 41 40" fill="none" xmlns="http://www.w3.org/2000/svg">
<g clip-path="url(#clip0_15_1187)">
<path d="M39.21 37.6H36.81V24.9333C36.81 24.7555 36.7433 24.5778 36.61 24.4C36.4767 24.2222 36.2989 24.1333 36.0767 24.1333C35.8545 24.1333 35.6545 24.2222 35.4767 24.4C35.2989 24.5778 35.21 24.7555 35.21 24.9333V37.6H29.61V31.0667C29.61 30.8889 29.5433 30.7111 29.41 30.5333C29.2767 30.3555 29.0767 30.2667 28.81 30.2667H23.7433C23.5656 30.2667 23.3878 30.3555 23.21 30.5333C23.0322 30.7111 22.9433 30.8889 22.9433 31.0667V37.6H17.4767V5.46665H35.21V18C35.21 18.2666 35.2989 18.4667 35.4767 18.6C35.6545 18.7333 35.8545 18.8 36.0767 18.8C36.2989 18.8 36.4767 18.7333 36.61 18.6C36.7433 18.4667 36.81 18.2666 36.81 18V4.66665C36.81 4.39998 36.7433 4.19998 36.61 4.06665C36.4767 3.93332 36.2767 3.86665 36.01 3.86665H34.1433V1.59998C34.1433 1.4222 34.0545 1.26665 33.8767 1.13332C33.6989 0.999981 33.5211 0.933315 33.3433 0.933315H19.61C19.4322 0.933315 19.2545 0.999981 19.0767 1.13332C18.8989 1.26665 18.81 1.4222 18.81 1.59998V3.86665H16.6767C16.4989 3.86665 16.3433 3.93332 16.21 4.06665C16.0767 4.19998 16.01 4.39998 16.01 4.66665V16.8H9.87668V14.4C9.87668 14.1333 9.78779 13.9333 9.61001 13.8C9.43223 13.6666 9.25445 13.6 9.07668 13.6H3.61001C3.43223 13.6 3.25445 13.6666 3.07668 13.8C2.8989 13.9333 2.81001 14.1333 2.81001 14.4V37.6H0.81001C0.543343 37.6 0.343343 37.6667 0.21001 37.8C0.0766764 37.9333 0.0100098 38.1111 0.0100098 38.3333C0.0100098 38.5555 0.0766764 38.7333 0.21001 38.8667C0.343343 39 0.543343 39.0667 0.81001 39.0667H39.21C39.4767 39.0667 39.6767 39 39.81 38.8667C39.9433 38.7333 40.01 38.5555 40.01 38.3333C40.01 38.1111 39.9433 37.9333 39.81 37.8C39.6767 37.6667 39.4767 37.6 39.21 37.6ZM20.41 2.39998H32.5433V3.86665H20.41V2.39998ZM4.41001 15.2H8.27668V16.8H4.41001V15.2ZM11.0767 37.6H9.21001V34.8H11.0767V37.6ZM16.01 37.6H12.6767V34C12.6767 33.8222 12.5878 33.6444 12.41 33.4667C12.2322 33.2889 12.0545 33.2 11.8767 33.2H8.41001C8.23223 33.2 8.05445 33.2889 7.87668 33.4667C7.6989 33.6444 7.61001 33.8222 7.61001 34V37.6H4.41001V18.4H16.01V37.6ZM28.1433 37.6H24.5433V31.8667H28.1433V37.6ZM36.6767 21.2C36.4989 20.8444 36.2322 20.7111 35.8767 20.8C35.5211 20.8889 35.3211 21.1111 35.2767 21.4667C35.2322 21.8222 35.3656 22.0889 35.6767 22.2666C35.9878 22.4444 36.2545 22.4444 36.4767 22.2666C36.6989 22.0889 36.81 21.9111 36.81 21.7333C36.81 21.5555 36.7656 21.3778 36.6767 21.2ZM25.0767 8.93332C25.0767 8.75554 24.9878 8.59998 24.81 8.46665C24.6322 8.33331 24.4545 8.26665 24.2767 8.26665H20.9433C20.7656 8.26665 20.5878 8.33331 20.41 8.46665C20.2322 8.59998 20.1433 8.75554 20.1433 8.93332V12.2666C20.1433 12.5333 20.2322 12.7333 20.41 12.8666C20.5878 13 20.7656 13.0666 20.9433 13.0666H24.2767C24.4545 13.0666 24.6322 13 24.81 12.8666C24.9878 12.7333 25.0767 12.5333 25.0767 12.2666V8.93332ZM23.4767 11.4666H21.7433V9.73332H23.4767V11.4666ZM32.41 8.93332C32.41 8.75554 32.3211 8.59998 32.1433 8.46665C31.9656 8.33331 31.7878 8.26665 31.61 8.26665H28.2767C28.0989 8.26665 27.9211 8.33331 27.7433 8.46665C27.5656 8.59998 27.4767 8.75554 27.4767 8.93332V12.2666C27.4767 12.5333 27.5656 12.7333 27.7433 12.8666C27.9211 13 28.0989 13.0666 28.2767 13.0666H31.61C31.7878 13.0666 31.9656 13 32.1433 12.8666C32.3211 12.7333 32.41 12.5333 32.41 12.2666V8.93332ZM30.81 11.4666H29.0767V9.73332H30.81V11.4666ZM25.0767 15.8666C25.0767 15.6 24.9878 15.4 24.81 15.2666C24.6322 15.1333 24.4545 15.0666 24.2767 15.0666H20.9433C20.7656 15.0666 20.5878 15.1333 20.41 15.2666C20.2322 15.4 20.1433 15.6 20.1433 15.8666V19.0666C20.1433 19.3333 20.2322 19.5333 20.41 19.6666C20.5878 19.8 20.7656 19.8666 20.9433 19.8666H24.2767C24.4545 19.8666 24.6322 19.8 24.81 19.6666C24.9878 19.5333 25.0767 19.3333 25.0767 19.0666V15.8666ZM23.4767 18.4H21.7433V16.6666H23.4767V18.4ZM32.41 15.8666C32.41 15.6 32.3211 15.4 32.1433 15.2666C31.9656 15.1333 31.7878 15.0666 31.61 15.0666H28.2767C28.0989 15.0666 27.9211 15.1333 27.7433 15.2666C27.5656 15.4 27.4767 15.6 27.4767 15.8666V19.0666C27.4767 19.3333 27.5656 19.5333 27.7433 19.6666C27.9211 19.8 28.0989 19.8666 28.2767 19.8666H31.61C31.7878 19.8666 31.9656 19.8 32.1433 19.6666C32.3211 19.5333 32.41 19.3333 32.41 19.0666V15.8666ZM30.81 18.4H29.0767V16.6666H30.81V18.4ZM24.2767 21.8666H20.9433C20.7656 21.8666 20.5878 21.9333 20.41 22.0667C20.2322 22.2 20.1433 22.4 20.1433 22.6666V26C20.1433 26.1778 20.2322 26.3555 20.41 26.5333C20.5878 26.7111 20.7656 26.8 20.9433 26.8H24.2767C24.4545 26.8 24.6322 26.7111 24.81 26.5333C24.9878 26.3555 25.0767 26.1778 25.0767 26V22.6666C25.0767 22.4 24.9878 22.2 24.81 22.0667C24.6322 21.9333 24.4545 21.8666 24.2767 21.8666ZM23.4767 25.2H21.7433V23.4667H23.4767V25.2ZM31.61 21.8666H28.2767C28.0989 21.8666 27.9211 21.9333 27.7433 22.0667C27.5656 22.2 27.4767 22.4 27.4767 22.6666V26C27.4767 26.1778 27.5656 26.3555 27.7433 26.5333C27.9211 26.7111 28.0989 26.8 28.2767 26.8H31.61C31.7878 26.8 31.9656 26.7111 32.1433 26.5333C32.3211 26.3555 32.41 26.1778 32.41 26V22.6666C32.41 22.4 32.3211 22.2 32.1433 22.0667C31.9656 21.9333 31.7878 21.8666 31.61 21.8666ZM30.81 25.2H29.0767V23.4667H30.81V25.2ZM6.94334 20.1333C6.76557 20.1333 6.58779 20.2222 6.41001 20.4C6.23223 20.5778 6.14334 20.7555 6.14334 20.9333V30.8C6.14334 30.9778 6.23223 31.1555 6.41001 31.3333C6.58779 31.5111 6.76557 31.6 6.94334 31.6C7.12112 31.6 7.2989 31.5111 7.47668 31.3333C7.65445 31.1555 7.74334 30.9778 7.74334 30.8V20.9333C7.74334 20.7555 7.65445 20.5778 7.47668 20.4C7.2989 20.2222 7.12112 20.1333 6.94334 20.1333ZM10.1433 31.6C10.3211 31.6 10.4989 31.5111 10.6767 31.3333C10.8545 31.1555 10.9433 30.9778 10.9433 30.8V20.9333C10.9433 20.7555 10.8545 20.5778 10.6767 20.4C10.4989 20.2222 10.3211 20.1333 10.1433 20.1333C9.96557 20.1333 9.78779 20.2222 9.61001 20.4C9.43223 20.5778 9.34334 20.7555 9.34334 20.9333V30.8C9.34334 30.9778 9.43223 31.1555 9.61001 31.3333C9.78779 31.5111 9.96557 31.6 10.1433 31.6ZM13.3433 31.6C13.5211 31.6 13.6989 31.5111 13.8767 31.3333C14.0545 31.1555 14.1433 30.9778 14.1433 30.8V20.9333C14.1433 20.7555 14.0545 20.5778 13.8767 20.4C13.6989 20.2222 13.5211 20.1333 13.3433 20.1333C13.1656 20.1333 12.9878 20.2222 12.81 20.4C12.6322 20.5778 12.5433 20.7555 12.5433 20.9333V30.8C12.5433 30.9778 12.6322 31.1555 12.81 31.3333C12.9878 31.5111 13.1656 31.6 13.3433 31.6Z" fill="#1A1A1A"/>
</g>
<defs>
<clipPath id="clip0_15_1187">
<rect width="40.02" height="40" fill="white" transform="matrix(1 0 0 -1 0 40)"/>
</clipPath>
</defs>
</svg>
