<svg width="41" height="40" viewBox="0 0 41 40" fill="none" xmlns="http://www.w3.org/2000/svg">
<g clip-path="url(#clip0_15_1182)">
<path d="M20.1433 27.3334C20.41 27.3334 20.61 27.2667 20.7433 27.1334C20.8767 27 20.9433 26.8 20.9433 26.5334V22.9334C20.9433 22.5778 20.81 22.3334 20.5433 22.2C20.2767 22.0667 20.01 22.0667 19.7433 22.2C19.4767 22.3334 19.3433 22.5778 19.3433 22.9334V26.5334C19.3433 26.8 19.4322 27 19.61 27.1334C19.7878 27.2667 19.9656 27.3334 20.1433 27.3334ZM20.1433 10.9334C20.41 10.9334 20.61 10.8667 20.7433 10.7334C20.8767 10.6 20.9433 10.4445 20.9433 10.2667V6.53336C20.9433 6.2667 20.81 6.0667 20.5433 5.93336C20.2767 5.80003 20.01 5.80003 19.7433 5.93336C19.4767 6.0667 19.3433 6.2667 19.3433 6.53336V10.2667C19.3433 10.4445 19.4322 10.6 19.61 10.7334C19.7878 10.8667 19.9656 10.9334 20.1433 10.9334ZM20.1433 19.2C20.41 19.2 20.61 19.1111 20.7433 18.9334C20.8767 18.7556 20.9433 18.5778 20.9433 18.4V14.8C20.9433 14.5334 20.8767 14.3334 20.7433 14.2C20.61 14.0667 20.4322 14 20.21 14C19.9878 14 19.7878 14.0667 19.61 14.2C19.4322 14.3334 19.3433 14.5334 19.3433 14.8V18.4C19.3433 18.5778 19.4322 18.7556 19.61 18.9334C19.7878 19.1111 19.9656 19.2 20.1433 19.2ZM25.61 10.9334C25.7878 10.9334 25.9656 10.8667 26.1433 10.7334C26.3211 10.6 26.41 10.4445 26.41 10.2667V6.53336C26.41 6.35559 26.3211 6.17781 26.1433 6.00003C25.9656 5.82225 25.7878 5.73336 25.61 5.73336C25.4322 5.73336 25.2544 5.82225 25.0767 6.00003C24.8989 6.17781 24.81 6.35559 24.81 6.53336V10.2667C24.81 10.4445 24.8989 10.6 25.0767 10.7334C25.2544 10.8667 25.4322 10.9334 25.61 10.9334ZM25.61 19.2C25.7878 19.2 25.9656 19.1111 26.1433 18.9334C26.3211 18.7556 26.41 18.5778 26.41 18.4V14.8C26.41 14.5334 26.3211 14.3334 26.1433 14.2C25.9656 14.0667 25.7878 14 25.61 14C25.4322 14 25.2544 14.0667 25.0767 14.2C24.8989 14.3334 24.81 14.5334 24.81 14.8V18.4C24.81 18.5778 24.8989 18.7556 25.0767 18.9334C25.2544 19.1111 25.4322 19.2 25.61 19.2ZM25.61 27.3334C25.7878 27.3334 25.9656 27.2667 26.1433 27.1334C26.3211 27 26.41 26.8 26.41 26.5334V22.9334C26.41 22.6667 26.3211 22.4667 26.1433 22.3334C25.9656 22.2 25.7878 22.1334 25.61 22.1334C25.4322 22.1334 25.2544 22.2 25.0767 22.3334C24.8989 22.4667 24.81 22.6667 24.81 22.9334V26.5334C24.81 26.8 24.8989 27 25.0767 27.1334C25.2544 27.2667 25.4322 27.3334 25.61 27.3334ZM34.6767 30.2667H35.3433C35.5211 30.2667 35.6767 30.2 35.81 30.0667C35.9433 29.9334 36.01 29.7556 36.01 29.5334C36.01 29.3111 35.9433 29.1334 35.81 29C35.6767 28.8667 35.5211 28.8 35.3433 28.8H34.6767C34.41 28.8 34.21 28.8667 34.0767 29C33.9433 29.1334 33.8767 29.3111 33.8767 29.5334C33.8767 29.7556 33.9433 29.9334 34.0767 30.0667C34.21 30.2 34.41 30.2667 34.6767 30.2667ZM34.6767 25.8667H35.3433C35.5211 25.8667 35.6767 25.8 35.81 25.6667C35.9433 25.5334 36.01 25.3556 36.01 25.1334C36.01 24.9111 35.9433 24.7111 35.81 24.5334C35.6767 24.3556 35.5211 24.2667 35.3433 24.2667H34.6767C34.41 24.2667 34.21 24.3556 34.0767 24.5334C33.9433 24.7111 33.8767 24.9111 33.8767 25.1334C33.8767 25.3556 33.9433 25.5334 34.0767 25.6667C34.21 25.8 34.41 25.8667 34.6767 25.8667ZM34.6767 34.6667H35.3433C35.5211 34.6667 35.6767 34.5778 35.81 34.4C35.9433 34.2223 36.01 34.0445 36.01 33.8667C36.01 33.6889 35.9433 33.5111 35.81 33.3334C35.6767 33.1556 35.5211 33.0667 35.3433 33.0667H34.6767C34.41 33.0667 34.21 33.1556 34.0767 33.3334C33.9433 33.5111 33.8767 33.6889 33.8767 33.8667C33.8767 34.0445 33.9433 34.2223 34.0767 34.4C34.21 34.5778 34.41 34.6667 34.6767 34.6667ZM10.9433 21.4667H11.61C11.7878 21.4667 11.9433 21.4 12.0767 21.2667C12.21 21.1334 12.2767 20.9556 12.2767 20.7334C12.2767 20.5111 12.21 20.3334 12.0767 20.2C11.9433 20.0667 11.7878 20 11.61 20H10.9433C10.6767 20 10.4767 20.0667 10.3433 20.2C10.21 20.3334 10.1433 20.5111 10.1433 20.7334C10.1433 20.9556 10.21 21.1334 10.3433 21.2667C10.4767 21.4 10.6767 21.4667 10.9433 21.4667ZM10.9433 17.0667H11.61C11.7878 17.0667 11.9433 17 12.0767 16.8667C12.21 16.7334 12.2767 16.5556 12.2767 16.3334C12.2767 16.1111 12.21 15.9334 12.0767 15.8C11.9433 15.6667 11.7878 15.6 11.61 15.6H10.9433C10.6767 15.6 10.4767 15.6667 10.3433 15.8C10.21 15.9334 10.1433 16.1111 10.1433 16.3334C10.1433 16.5556 10.21 16.7334 10.3433 16.8667C10.4767 17 10.6767 17.0667 10.9433 17.0667ZM10.9433 25.8667H11.61C11.7878 25.8667 11.9433 25.8 12.0767 25.6667C12.21 25.5334 12.2767 25.3556 12.2767 25.1334C12.2767 24.9111 12.21 24.7111 12.0767 24.5334C11.9433 24.3556 11.7878 24.2667 11.61 24.2667H10.9433C10.5878 24.2667 10.3433 24.4 10.21 24.6667C10.0767 24.9334 10.0767 25.2 10.21 25.4667C10.3433 25.7334 10.5878 25.8667 10.9433 25.8667ZM38.9433 18H31.7433V1.4667C31.7433 1.20003 31.6767 1.00003 31.5433 0.866695C31.41 0.733364 31.21 0.666698 30.9433 0.666698H14.81C14.6322 0.666698 14.4544 0.755585 14.2767 0.933365C14.0989 1.11114 14.01 1.28892 14.01 1.4667V11.0667H7.61C7.43222 11.0667 7.25445 11.1334 7.07667 11.2667C6.89889 11.4 6.81 11.6 6.81 11.8667V21.3334C6.81 21.6 6.89889 21.8 7.07667 21.9334C7.25445 22.0667 7.45445 22.1334 7.67667 22.1334C7.89889 22.1334 8.07667 22.0667 8.21 21.9334C8.34334 21.8 8.41 21.6 8.41 21.3334V12.5334H14.01V38.2667H8.41C8.14334 38.2667 7.94334 38.3556 7.81 38.5334C7.67667 38.7111 7.61 38.9111 7.61 39.1334C7.61 39.3556 7.67667 39.5334 7.81 39.6667C7.94334 39.8 8.14334 39.8667 8.41 39.8667H36.2767C37.2544 39.8667 38.0767 39.5334 38.7433 38.8667C39.41 38.2 39.7433 37.4223 39.7433 36.5334V18.8C39.7433 18.6223 39.6544 18.4445 39.4767 18.2667C39.2989 18.0889 39.1211 18 38.9433 18ZM20.9433 38.2667V32.2667H24.81V38.2667H20.9433ZM30.1433 38.2667H26.41V31.4667C26.41 31.2 26.3211 31 26.1433 30.8667C25.9656 30.7334 25.7878 30.6667 25.61 30.6667H20.1433C19.9656 30.6667 19.7878 30.7334 19.61 30.8667C19.4322 31 19.3433 31.2 19.3433 31.4667V38.2667H15.61V2.13337H30.1433V38.2667ZM38.1433 36.5334C38.1433 36.9778 37.9656 37.4 37.61 37.8C37.2544 38.2 36.81 38.4 36.2767 38.4H31.7433V19.6H38.1433V36.5334ZM9.74334 29.2C9.74334 27.8667 9.07667 26.5778 7.74334 25.3334C7.03222 24.6223 6.27667 24.0445 5.47667 23.6C5.29889 23.5111 5.07667 23.5111 4.81 23.6C4.09889 24.0445 3.34334 24.6223 2.54333 25.3334C1.21 26.5778 0.543335 27.8889 0.543335 29.2667C0.543335 30.6445 0.898891 31.8667 1.61 32.9334C2.32111 34 3.25445 34.6223 4.41 34.8V39.0667C4.41 39.3334 4.47667 39.5334 4.61 39.6667C4.74334 39.8 4.92111 39.8667 5.14334 39.8667C5.36556 39.8667 5.54334 39.8 5.67667 39.6667C5.81 39.5334 5.87667 39.3334 5.87667 39.0667V34.8C7.03222 34.6223 7.96556 34 8.67667 32.9334C9.38778 31.8667 9.74334 30.6223 9.74334 29.2ZM2.01 29.2C2.01 28.4889 2.41 27.6889 3.21 26.8C3.74334 26.2667 4.41 25.7334 5.21 25.2C5.92111 25.7334 6.54334 26.2667 7.07667 26.8C7.87667 27.6889 8.27667 28.4889 8.27667 29.2C8.27667 30.1778 8.05445 31.0445 7.61 31.8C7.16556 32.5556 6.58778 33.0223 5.87667 33.2V31.4667C5.87667 31.2 5.81 31 5.67667 30.8667C5.54334 30.7334 5.36556 30.6667 5.14334 30.6667C4.92111 30.6667 4.74334 30.7334 4.61 30.8667C4.47667 31 4.41 31.2 4.41 31.4667V33.2C3.69889 33.0223 3.12111 32.5556 2.67667 31.8C2.23222 31.0445 2.01 30.1778 2.01 29.2Z" fill="#1A1A1A"/>
</g>
<defs>
<clipPath id="clip0_15_1182">
<rect width="40.02" height="40" fill="white" transform="matrix(1 0 0 -1 0 40)"/>
</clipPath>
</defs>
</svg>
