<svg width="15" height="13" viewBox="0 0 15 13" fill="none" xmlns="http://www.w3.org/2000/svg">
<g clip-path="url(#clip0_15_876)">
<path d="M0.877413 5.81839H12.8881L8.28899 1.43915C8.04817 1.20983 8.03884 0.828845 8.26822 0.588095C8.4973 0.347646 8.87839 0.338016 9.11951 0.567331L14.3719 5.56891C14.5991 5.79642 14.7246 6.09856 14.7246 6.42027C14.7246 6.74167 14.5991 7.04411 14.3613 7.28154L9.11922 12.2729C9.00272 12.3839 8.85341 12.439 8.7041 12.439C8.54516 12.439 8.38622 12.3764 8.26792 12.2522C8.03854 12.0114 8.04787 11.6307 8.28869 11.4014L12.907 7.02214H0.877413C0.54508 7.02214 0.27536 6.7525 0.27536 6.42027C0.27536 6.08803 0.54508 5.81839 0.877413 5.81839Z" fill="white"/>
</g>
<defs>
<clipPath id="clip0_15_876">
<rect width="15" height="12.84" fill="white"/>
</clipPath>
</defs>
</svg>
