<svg width="20" height="20" viewBox="0 0 20 20" fill="none" xmlns="http://www.w3.org/2000/svg">
<g clip-path="url(#clip0_15_1144)">
<path d="M16.1333 2.53333C15.2889 1.73333 14.3444 1.11111 13.3 0.666666C12.2555 0.222221 11.1555 -1.90735e-06 9.99998 -1.90735e-06C8.84442 -1.90735e-06 7.73331 0.222221 6.66665 0.666666C5.59998 1.11111 4.66665 1.73333 3.86665 2.53333C3.06665 3.33333 2.44442 4.26667 1.99998 5.33333C1.55554 6.4 1.33331 7.51111 1.33331 8.66667C1.33331 9.82222 1.55554 10.9222 1.99998 11.9667C2.44442 13.0111 3.06665 13.9556 3.86665 14.8L8.46665 19.4C8.86665 19.8 9.36665 20 9.96665 20C10.5666 20 11.0889 19.8 11.5333 19.4L16.1333 14.8C16.9333 13.9556 17.5555 13.0111 18 11.9667C18.4444 10.9222 18.6666 9.82222 18.6666 8.66667C18.6666 7.51111 18.4444 6.4 18 5.33333C17.5555 4.26667 16.9333 3.33333 16.1333 2.53333ZM15.2666 13.9333L10.6666 18.5333C10.4889 18.7111 10.2666 18.8 9.99998 18.8C9.73331 18.8 9.48887 18.7111 9.26665 18.5333L4.66665 13.9333C3.95554 13.2222 3.4222 12.4111 3.06665 11.5C2.71109 10.5889 2.53331 9.63333 2.53331 8.63333C2.53331 7.63333 2.71109 6.67778 3.06665 5.76667C3.4222 4.85555 3.95554 4.05555 4.66665 3.36666C5.37776 2.67778 6.18887 2.14444 7.09998 1.76667C8.01109 1.38889 8.96665 1.2 9.96665 1.2C10.9666 1.2 11.9222 1.38889 12.8333 1.76667C13.7444 2.14444 14.5555 2.66667 15.2666 3.33333C16.2444 4.31111 16.9 5.44444 17.2333 6.73333C17.5666 8.02222 17.5666 9.31111 17.2333 10.6C16.9 11.8889 16.2444 13 15.2666 13.9333ZM9.99998 5.53333C9.15554 5.53333 8.4222 5.84444 7.79998 6.46667C7.17776 7.08889 6.86665 7.82222 6.86665 8.66667C6.86665 9.51111 7.17776 10.2333 7.79998 10.8333C8.4222 11.4333 9.15554 11.7333 9.99998 11.7333C10.8444 11.7333 11.5666 11.4333 12.1666 10.8333C12.7666 10.2333 13.0666 9.51111 13.0666 8.66667C13.0666 7.82222 12.7666 7.08889 12.1666 6.46667C11.5666 5.84444 10.8444 5.53333 9.99998 5.53333ZM9.99998 10.6C9.46665 10.6 9.01109 10.4111 8.63331 10.0333C8.25554 9.65555 8.06665 9.2 8.06665 8.66667C8.06665 8.13333 8.25554 7.67778 8.63331 7.3C9.01109 6.92222 9.46665 6.73333 9.99998 6.73333C10.5333 6.73333 10.9889 6.92222 11.3666 7.3C11.7444 7.67778 11.9333 8.13333 11.9333 8.66667C11.9333 9.2 11.7444 9.65555 11.3666 10.0333C10.9889 10.4111 10.5333 10.6 9.99998 10.6Z" fill="white"/>
</g>
<defs>
<clipPath id="clip0_15_1144">
<rect width="20" height="20" fill="white" transform="matrix(1 0 0 -1 0 20)"/>
</clipPath>
</defs>
</svg>
