<svg width="20" height="20" viewBox="0 0 20 20" fill="none" xmlns="http://www.w3.org/2000/svg">
<g clip-path="url(#clip0_15_1160)">
<path d="M16.1334 2.53333C15.2889 1.73333 14.3445 1.11111 13.3 0.666666C12.2556 0.222221 11.1556 -1.90735e-06 10 -1.90735e-06C8.84449 -1.90735e-06 7.73337 0.222221 6.66671 0.666666C5.60004 1.11111 4.66671 1.73333 3.86671 2.53333C3.06671 3.33333 2.44449 4.26667 2.00004 5.33333C1.5556 6.4 1.33337 7.51111 1.33337 8.66667C1.33337 9.82222 1.5556 10.9222 2.00004 11.9667C2.44449 13.0111 3.06671 13.9556 3.86671 14.8L8.46671 19.4C8.86671 19.8 9.36671 20 9.96671 20C10.5667 20 11.0889 19.8 11.5334 19.4L16.1334 14.8C16.9334 13.9556 17.5556 13.0111 18 11.9667C18.4445 10.9222 18.6667 9.82222 18.6667 8.66667C18.6667 7.51111 18.4445 6.4 18 5.33333C17.5556 4.26667 16.9334 3.33333 16.1334 2.53333ZM15.2667 13.9333L10.6667 18.5333C10.4889 18.7111 10.2667 18.8 10 18.8C9.73337 18.8 9.48893 18.7111 9.26671 18.5333L4.66671 13.9333C3.9556 13.2222 3.42226 12.4111 3.06671 11.5C2.71115 10.5889 2.53337 9.63333 2.53337 8.63333C2.53337 7.63333 2.71115 6.67778 3.06671 5.76667C3.42226 4.85555 3.9556 4.05555 4.66671 3.36666C5.37782 2.67778 6.18893 2.14444 7.10004 1.76667C8.01115 1.38889 8.96671 1.2 9.96671 1.2C10.9667 1.2 11.9223 1.38889 12.8334 1.76667C13.7445 2.14444 14.5556 2.66667 15.2667 3.33333C16.2445 4.31111 16.9 5.44444 17.2334 6.73333C17.5667 8.02222 17.5667 9.31111 17.2334 10.6C16.9 11.8889 16.2445 13 15.2667 13.9333ZM10 5.53333C9.1556 5.53333 8.42226 5.84444 7.80004 6.46667C7.17782 7.08889 6.86671 7.82222 6.86671 8.66667C6.86671 9.51111 7.17782 10.2333 7.80004 10.8333C8.42226 11.4333 9.1556 11.7333 10 11.7333C10.8445 11.7333 11.5667 11.4333 12.1667 10.8333C12.7667 10.2333 13.0667 9.51111 13.0667 8.66667C13.0667 7.82222 12.7667 7.08889 12.1667 6.46667C11.5667 5.84444 10.8445 5.53333 10 5.53333ZM10 10.6C9.46671 10.6 9.01115 10.4111 8.63337 10.0333C8.2556 9.65555 8.06671 9.2 8.06671 8.66667C8.06671 8.13333 8.2556 7.67778 8.63337 7.3C9.01115 6.92222 9.46671 6.73333 10 6.73333C10.5334 6.73333 10.9889 6.92222 11.3667 7.3C11.7445 7.67778 11.9334 8.13333 11.9334 8.66667C11.9334 9.2 11.7445 9.65555 11.3667 10.0333C10.9889 10.4111 10.5334 10.6 10 10.6Z" fill="white"/>
</g>
<defs>
<clipPath id="clip0_15_1160">
<rect width="20" height="20" fill="white" transform="matrix(1 0 0 -1 0 20)"/>
</clipPath>
</defs>
</svg>
