<svg width="41" height="40" viewBox="0 0 41 40" fill="none" xmlns="http://www.w3.org/2000/svg">
<g clip-path="url(#clip0_15_1172)">
<path d="M28.01 27.8667C27.6544 27.8667 27.41 27.6889 27.2767 27.3334C27.1433 26.9778 27.21 26.6667 27.4767 26.4C27.7433 26.1334 28.0544 26.1112 28.41 26.3334C28.7656 26.5556 28.8989 26.8 28.81 27.0667C28.7211 27.3334 28.61 27.5334 28.4767 27.6667C28.3433 27.8 28.1878 27.8667 28.01 27.8667ZM23.61 13.2H16.41C16.1433 13.2 15.9433 13.2667 15.81 13.4C15.6767 13.5334 15.61 13.7334 15.61 14V23.8667C15.61 24.1334 15.6767 24.3334 15.81 24.4667C15.9433 24.6 16.1433 24.6667 16.41 24.6667H23.61C23.8767 24.6667 24.0767 24.6 24.21 24.4667C24.3433 24.3334 24.41 24.1334 24.41 23.8667V14C24.41 13.7334 24.3433 13.5334 24.21 13.4C24.0767 13.2667 23.8767 13.2 23.61 13.2ZM17.0767 14.8H19.21V23.2H17.0767V14.8ZM22.9433 23.2H20.81V14.8H22.9433V23.2ZM39.61 20.4L28.81 14V8.26671C28.81 8.00005 28.7211 7.77782 28.5433 7.60005L20.5433 1.33338C20.1878 1.1556 19.8322 1.1556 19.4767 1.33338L11.4767 7.60005C11.2989 7.77782 11.21 8.00005 11.21 8.26671V14L0.410002 20.4C0.143335 20.4889 0.0100021 20.7112 0.0100021 21.0667V25.3334C0.0100021 25.6 0.098891 25.8 0.276669 25.9334C0.454447 26.0667 0.610002 26.1334 0.743335 26.1334C0.876669 26.1334 1.03222 26.0889 1.21 26L1.74334 25.7334V38C1.74334 38.1778 1.81 38.3556 1.94334 38.5334C2.07667 38.7112 2.27667 38.8 2.54334 38.8H37.4767C37.7433 38.8 37.9433 38.7112 38.0767 38.5334C38.21 38.3556 38.2767 38.1778 38.2767 38V25.7334L38.81 26C38.9878 26.0889 39.1433 26.1334 39.2767 26.1334C39.41 26.1334 39.5656 26.0667 39.7433 25.9334C39.9211 25.8 40.01 25.6 40.01 25.3334V21.0667C40.01 20.7112 39.8767 20.4889 39.61 20.4ZM20.01 2.93338L27.21 8.66671V11.2L20.5433 6.00005C20.1878 5.73338 19.8322 5.73338 19.4767 6.00005L12.81 11.2V8.66671L20.01 2.93338ZM1.61 21.4667L11.21 15.7334V18.2667L1.61 24V21.4667ZM3.34334 28.5334H6.67667V33.2H3.34334V28.5334ZM3.34334 34.6667H7.47667C7.74334 34.6667 7.94334 34.6 8.07667 34.4667C8.21 34.3334 8.27667 34.1334 8.27667 33.8667V27.7334C8.27667 27.4667 8.21 27.2667 8.07667 27.1334C7.94334 27 7.74334 26.9334 7.47667 26.9334H3.34334V24.8L11.21 20.1334V37.2H3.34334V34.6667ZM18.1433 37.2V28.6667H21.8767V37.2H18.1433ZM36.6767 33.2H33.0767V28.5334H36.6767V33.2ZM36.6767 26.9334H32.2767C32.0989 26.9334 31.9433 27 31.81 27.1334C31.6767 27.2667 31.61 27.4667 31.61 27.7334V33.8667C31.61 34.1334 31.6767 34.3334 31.81 34.4667C31.9433 34.6 32.0989 34.6667 32.2767 34.6667H36.6767V37.2H28.81V30.5334C28.81 30.3556 28.7433 30.1778 28.61 30C28.4767 29.8223 28.2989 29.7334 28.0767 29.7334C27.8544 29.7334 27.6544 29.8223 27.4767 30C27.2989 30.1778 27.21 30.3556 27.21 30.5334V37.2H23.3433V28C23.3433 27.7334 23.2767 27.5334 23.1433 27.4C23.01 27.2667 22.8544 27.2 22.6767 27.2H17.3433C17.1656 27.2 17.01 27.2667 16.8767 27.4C16.7433 27.5334 16.6767 27.7334 16.6767 28V37.2H12.81V13.2L20.01 7.60005L27.21 13.2V23.4667C27.21 23.7334 27.2989 23.9334 27.4767 24.0667C27.6544 24.2 27.8544 24.2667 28.0767 24.2667C28.2989 24.2667 28.4767 24.2 28.61 24.0667C28.7433 23.9334 28.81 23.7334 28.81 23.4667V20.1334L36.6767 24.8V26.9334ZM38.41 24L28.81 18.2667V15.7334L38.41 21.4667V24Z" fill="#1A1A1A"/>
</g>
<defs>
<clipPath id="clip0_15_1172">
<rect width="40.02" height="40" fill="white" transform="matrix(1 0 0 -1 0 40)"/>
</clipPath>
</defs>
</svg>
