<svg width="41" height="40" viewBox="0 0 41 40" fill="none" xmlns="http://www.w3.org/2000/svg">
<g clip-path="url(#clip0_15_1192)">
<path d="M1.61006 34.1333C1.43228 34.1333 1.2545 34.2222 1.07673 34.4C0.898947 34.5777 0.810059 34.7555 0.810059 34.9333V38.2666C0.810059 38.5333 0.898947 38.7555 1.07673 38.9333C1.2545 39.1111 1.43228 39.2 1.61006 39.2H30.8101C31.0767 39.2 31.2989 39.1111 31.4767 38.9333C31.6545 38.7555 31.6989 38.5333 31.6101 38.2666V34.9333C31.6101 34.7555 31.5434 34.5777 31.4101 34.4C31.2767 34.2222 31.0767 34.1333 30.8101 34.1333H1.61006ZM2.54339 35.8666H30.0101V37.4666H2.54339V35.8666ZM28.2767 19.1999C28.0989 19.1999 27.9212 19.2666 27.7434 19.4C27.5656 19.5333 27.4767 19.7333 27.4767 20V34.1333H4.94339V22.6666C5.03228 22.4 4.98784 22.2 4.81006 22.0666C4.63228 21.9333 4.43228 21.8666 4.21006 21.8666C3.98784 21.8666 3.78784 21.9333 3.61006 22.0666C3.43228 22.2 3.34339 22.4 3.34339 22.6666V34.9333C3.34339 35.2 3.43228 35.4222 3.61006 35.6C3.78784 35.7777 3.96561 35.8666 4.14339 35.8666H28.2767C28.5434 35.8666 28.7656 35.7777 28.9434 35.6C29.1212 35.4222 29.2101 35.2 29.2101 34.9333V20C29.2101 19.7333 29.1212 19.5333 28.9434 19.4C28.7656 19.2666 28.5434 19.1999 28.2767 19.1999ZM4.94339 9.99995C4.58784 9.99995 4.36561 10.1777 4.27673 10.5333L0.943392 19.7333C0.854503 20 0.876725 20.2444 1.01006 20.4666C1.14339 20.6888 1.34339 20.7999 1.61006 20.7999H30.8101C31.1656 20.7999 31.4101 20.6888 31.5434 20.4666C31.6767 20.2444 31.6989 20 31.6101 19.7333L28.2767 10.5333C28.1878 10.1777 27.9212 9.99995 27.4767 9.99995H23.3434C23.0767 9.99995 22.8767 10.0888 22.7434 10.2666C22.6101 10.4444 22.5434 10.6444 22.5434 10.8666C22.5434 11.0888 22.6101 11.2666 22.7434 11.4C22.8767 11.5333 23.0767 11.5999 23.3434 11.5999H26.9434L29.6101 19.1999H2.81006L5.61006 11.5999H9.61006C9.78784 11.5999 9.96561 11.5333 10.1434 11.4C10.3212 11.2666 10.4101 11.0888 10.4101 10.8666C10.4101 10.6444 10.3212 10.4444 10.1434 10.2666C9.96561 10.0888 9.78784 9.99995 9.61006 9.99995H4.94339ZM9.61006 7.06662C9.34339 7.06662 9.14339 7.15551 9.01006 7.33328C8.87673 7.51106 8.81006 7.73328 8.81006 7.99995V15.8666C8.81006 16.0444 8.87673 16.2222 9.01006 16.4C9.14339 16.5777 9.34339 16.6666 9.61006 16.6666H22.9434C23.1212 16.6666 23.2989 16.5777 23.4767 16.4C23.6545 16.2222 23.7434 16.0444 23.7434 15.8666V7.99995C23.7434 7.73328 23.6545 7.51106 23.4767 7.33328C23.2989 7.15551 23.0989 7.06662 22.8767 7.06662C22.6545 7.06662 22.4767 7.15551 22.3434 7.33328C22.2101 7.51106 22.1434 7.73328 22.1434 7.99995V14.9333H10.4101V7.99995C10.4101 7.73328 10.3212 7.51106 10.1434 7.33328C9.96561 7.15551 9.78784 7.06662 9.61006 7.06662ZM9.21006 0.79995C8.76561 0.79995 8.49895 1.02217 8.41006 1.46662L6.27673 7.73328C6.18784 7.99995 6.23228 8.24439 6.41006 8.46662C6.58784 8.68884 6.81006 8.79995 7.07673 8.79995H25.4767C25.7434 8.79995 25.9656 8.68884 26.1434 8.46662C26.3212 8.24439 26.3656 7.99995 26.2767 7.73328L24.1434 1.46662C24.0545 1.02217 23.7878 0.79995 23.3434 0.79995H9.21006ZM9.74339 2.53328H22.8101L24.2767 7.06662H8.27673L9.74339 2.53328ZM7.47673 25.0666C7.29895 24.9777 7.12117 25.0222 6.94339 25.2C6.76561 25.3777 6.67673 25.6 6.67673 25.8666V34.9333C6.67673 35.2 6.76561 35.4222 6.94339 35.6C7.12117 35.7777 7.29895 35.8666 7.47673 35.8666H14.6767C14.8545 35.8666 15.0323 35.7777 15.2101 35.6C15.3878 35.4222 15.4767 35.2 15.4767 34.9333V25.8666C15.4767 25.6 15.3878 25.4 15.2101 25.2666C15.0323 25.1333 14.8545 25.0666 14.6767 25.0666H7.47673ZM8.41006 26.6666H13.7434V34.1333H8.41006V26.6666ZM18.0101 25.0666C17.7434 24.9777 17.5212 25.0222 17.3434 25.2C17.1656 25.3777 17.0767 25.6 17.0767 25.8666V31.4666C17.0767 31.6444 17.1656 31.8222 17.3434 32C17.5212 32.1777 17.7434 32.2666 18.0101 32.2666H25.8767C26.0545 32.2666 26.2323 32.1777 26.4101 32C26.5878 31.8222 26.6767 31.6444 26.6767 31.4666V28.6666C26.6767 28.4 26.5878 28.2 26.4101 28.0666C26.2323 27.9333 26.0323 27.8666 25.8101 27.8666C25.5878 27.8666 25.3878 27.9333 25.2101 28.0666C25.0323 28.2 24.9434 28.4 24.9434 28.6666V30.6666H18.8101V26.6666H25.8767C26.0545 26.6666 26.2323 26.5777 26.4101 26.4C26.5878 26.2222 26.6767 26.0222 26.6767 25.8C26.6767 25.5777 26.5878 25.4 26.4101 25.2666C26.2323 25.1333 26.0545 25.0666 25.8767 25.0666H18.0101ZM13.3434 9.46662C13.0767 9.37773 12.8767 9.42217 12.7434 9.59995C12.6101 9.77773 12.5434 9.99995 12.5434 10.2666V13.5999C12.5434 13.7777 12.6101 13.9555 12.7434 14.1333C12.8767 14.3111 13.0767 14.4 13.3434 14.4H19.2101C19.3878 14.4 19.5656 14.3111 19.7434 14.1333C19.9212 13.9555 20.0101 13.7777 20.0101 13.5999V10.2666C20.0101 9.99995 19.9212 9.77773 19.7434 9.59995C19.5656 9.42217 19.3878 9.37773 19.2101 9.46662H13.3434ZM14.1434 11.0666H18.4101V12.6666H14.1434V11.0666ZM34.1434 0.79995C32.8101 0.79995 31.6545 1.28884 30.6767 2.26662C29.6989 3.24439 29.2101 4.42217 29.2101 5.79995C29.2101 7.17773 29.6989 8.3555 30.6767 9.33328C31.6545 10.3111 32.8323 10.7999 34.2101 10.7999C35.5878 10.7999 36.7656 10.3111 37.7434 9.33328C38.7212 8.3555 39.2101 7.17773 39.2101 5.79995C39.2101 4.42217 38.7212 3.24439 37.7434 2.26662C36.7656 1.28884 35.5656 0.79995 34.1434 0.79995ZM34.1434 2.53328C35.1212 2.53328 35.9212 2.84439 36.5434 3.46662C37.1656 4.08884 37.4767 4.86662 37.4767 5.79995C37.4767 6.73328 37.1656 7.53328 36.5434 8.19995C35.9212 8.86662 35.1434 9.19995 34.2101 9.19995C33.2767 9.19995 32.4767 8.86662 31.8101 8.19995C31.1434 7.53328 30.8101 6.73328 30.8101 5.79995C30.8101 4.86662 31.1434 4.08884 31.8101 3.46662C32.4767 2.84439 33.2545 2.53328 34.1434 2.53328ZM11.2101 30.4C11.2101 30.6666 11.1212 30.8888 10.9434 31.0666C10.7656 31.2444 10.5656 31.3333 10.3434 31.3333C10.1212 31.3333 9.92117 31.2444 9.74339 31.0666C9.56561 30.8888 9.47673 30.6666 9.47673 30.4C9.47673 30.1333 9.56561 29.9111 9.74339 29.7333C9.92117 29.5555 10.1212 29.4666 10.3434 29.4666C10.5656 29.4666 10.7656 29.5555 10.9434 29.7333C11.1212 29.9111 11.2101 30.1333 11.2101 30.4ZM20.9434 27.4666C20.5878 27.4666 20.3212 27.6 20.1434 27.8666L19.7434 28.5333C19.5656 28.8 19.5212 29.0444 19.6101 29.2666C19.6989 29.4888 19.8323 29.6444 20.0101 29.7333C20.1878 29.8222 20.3878 29.8444 20.6101 29.8C20.8323 29.7555 21.0323 29.6444 21.2101 29.4666L21.6101 28.6666C21.6989 28.4888 21.7212 28.2888 21.6767 28.0666C21.6323 27.8444 21.5212 27.6888 21.3434 27.6C21.1656 27.5111 21.0323 27.4666 20.9434 27.4666ZM23.3434 27.4666C23.0767 27.4666 22.8545 27.6 22.6767 27.8666L22.2767 28.5333C22.0989 28.8 22.0545 29.0444 22.1434 29.2666C22.2323 29.4888 22.3656 29.6444 22.5434 29.7333C22.7212 29.8222 22.9212 29.8444 23.1434 29.8C23.3656 29.7555 23.5212 29.6444 23.6101 29.4666L24.0101 28.6666C24.1878 28.4888 24.2323 28.2888 24.1434 28.0666C24.0545 27.8444 23.9434 27.6888 23.8101 27.6C23.6767 27.5111 23.5212 27.4666 23.3434 27.4666Z" fill="#1A1A1A"/>
</g>
<defs>
<clipPath id="clip0_15_1192">
<rect width="40.02" height="40" fill="white" transform="matrix(1 0 0 -1 0 40)"/>
</clipPath>
</defs>
</svg>
