<svg width="41" height="40" viewBox="0 0 41 40" fill="none" xmlns="http://www.w3.org/2000/svg">
<path d="M4.81 22.4C4.54334 22.4 4.34334 22.4666 4.21 22.6C4.07667 22.7333 4.01 22.9333 4.01 23.2V38.2666C4.01 38.5333 4.07667 38.7555 4.21 38.9333C4.34334 39.1111 4.54334 39.2 4.81 39.2H34.81C34.9878 39.2 35.1656 39.1111 35.3433 38.9333C35.5211 38.7555 35.61 38.5333 35.61 38.2666V26C35.61 25.7333 35.5211 25.5333 35.3433 25.4C35.1656 25.2666 34.9656 25.2 34.7433 25.2C34.5211 25.2 34.3433 25.2666 34.21 25.4C34.0767 25.5333 34.01 25.7333 34.01 26V37.4666H5.61V23.2C5.61 22.9333 5.52111 22.7333 5.34334 22.6C5.16556 22.4666 4.98778 22.4 4.81 22.4ZM8.14334 25.8666C7.87667 25.8666 7.67667 25.9333 7.54334 26.0666C7.41 26.2 7.34334 26.4 7.34334 26.6666V38.2666C7.34334 38.5333 7.41 38.7555 7.54334 38.9333C7.67667 39.1111 7.87667 39.2 8.14334 39.2H17.3433C17.5211 39.2 17.6989 39.1111 17.8767 38.9333C18.0544 38.7555 18.1433 38.5333 18.1433 38.2666V29.2C18.1433 29.0222 18.0544 28.8444 17.8767 28.6666C17.6989 28.4888 17.4989 28.4 17.2767 28.4C17.0544 28.4 16.8544 28.4888 16.6767 28.6666C16.4989 28.8444 16.41 29.0222 16.41 29.2V37.4666H8.94334V27.4666H17.3433C17.5211 27.4666 17.6989 27.4 17.8767 27.2666C18.0544 27.1333 18.1433 26.9333 18.1433 26.6666C18.1433 26.4 18.0544 26.2 17.8767 26.0666C17.6989 25.9333 17.5211 25.8666 17.3433 25.8666H8.14334ZM21.4767 25.8666C21.21 25.8666 21.01 25.9333 20.8767 26.0666C20.7433 26.2 20.6767 26.4 20.6767 26.6666V34.1333C20.6767 34.4 20.7433 34.6 20.8767 34.7333C21.01 34.8666 21.21 34.9333 21.4767 34.9333H31.4767C31.6544 34.9333 31.8322 34.8666 32.01 34.7333C32.1878 34.6 32.2767 34.4 32.2767 34.1333V29.2C32.2767 29.0222 32.1878 28.8444 32.01 28.6666C31.8322 28.4888 31.6322 28.4 31.41 28.4C31.1878 28.4 31.01 28.4888 30.8767 28.6666C30.7433 28.8444 30.6767 29.0222 30.6767 29.2V33.3333H22.2767V27.4666H31.4767C31.6544 27.4666 31.8322 27.4 32.01 27.2666C32.1878 27.1333 32.2767 26.9333 32.2767 26.6666C32.2767 26.4 32.1878 26.2 32.01 26.0666C31.8322 25.9333 31.6544 25.8666 31.4767 25.8666H21.4767ZM19.7433 16.9333C18.7656 16.9333 17.9433 17.2888 17.2767 18C16.61 18.7111 16.2767 19.5555 16.2767 20.5333C16.2767 21.5111 16.61 22.3555 17.2767 23.0666C17.9433 23.7777 18.7656 24.1333 19.7433 24.1333C20.7211 24.1333 21.5656 23.7777 22.2767 23.0666C22.9878 22.3555 23.3433 21.5111 23.3433 20.5333C23.3433 20.2666 23.2544 20.0666 23.0767 19.9333C22.8989 19.7999 22.6989 19.7333 22.4767 19.7333C22.2544 19.7333 22.0544 19.7999 21.8767 19.9333C21.6989 20.0666 21.61 20.2666 21.61 20.5333C21.61 21.0666 21.4322 21.5111 21.0767 21.8666C20.7211 22.2222 20.2767 22.4 19.7433 22.4C19.21 22.4 18.7656 22.2222 18.41 21.8666C18.0544 21.5111 17.8767 21.0666 17.8767 20.5333C17.8767 20 18.0544 19.5555 18.41 19.1999C18.7656 18.8444 19.21 18.6666 19.7433 18.6666C20.2767 18.6666 20.7211 18.8444 21.0767 19.1999C21.2544 19.3777 21.4544 19.4666 21.6767 19.4666C21.8989 19.4666 22.0989 19.3777 22.2767 19.1999C22.4544 19.0222 22.5433 18.8222 22.5433 18.6C22.5433 18.3777 22.4544 18.1777 22.2767 18C21.5656 17.2888 20.7211 16.9333 19.7433 16.9333ZM25.21 28.8C24.8544 28.8 24.6322 28.9777 24.5433 29.3333L23.61 30.6666C23.5211 30.9333 23.4989 31.1777 23.5433 31.4C23.5878 31.6222 23.7211 31.7777 23.9433 31.8666C24.1656 31.9555 24.3878 31.9777 24.61 31.9333C24.8322 31.8888 24.9878 31.7777 25.0767 31.6L25.8767 30.1333C26.0544 29.9555 26.0989 29.7555 26.01 29.5333C25.9211 29.3111 25.81 29.1555 25.6767 29.0666C25.5433 28.9777 25.3878 28.8888 25.21 28.8ZM28.5433 28.8C28.1878 28.8 27.9656 28.9777 27.8767 29.3333L26.9433 30.6666C26.8544 30.9333 26.8322 31.1777 26.8767 31.4C26.9211 31.6222 27.0544 31.7777 27.2767 31.8666C27.4989 31.9555 27.7211 31.9777 27.9433 31.9333C28.1656 31.8888 28.3211 31.7777 28.41 31.6L29.21 30.1333C29.3878 29.9555 29.4322 29.7555 29.3433 29.5333C29.2544 29.3111 29.1433 29.1555 29.01 29.0666C28.8767 28.9777 28.7211 28.8888 28.5433 28.8ZM33.4767 0.79995C32.0544 0.79995 30.81 1.33328 29.7433 2.39995C28.6767 3.46662 28.1433 4.7555 28.1433 6.26662C28.1433 7.77773 28.6767 9.04439 29.7433 10.0666C30.81 11.0888 32.0767 11.5999 33.5433 11.5999C35.01 11.5999 36.2767 11.0888 37.3433 10.0666C38.41 9.04439 38.9433 7.77773 38.9433 6.26662C38.9433 4.7555 38.41 3.46662 37.3433 2.39995C36.2767 1.33328 34.9878 0.79995 33.4767 0.79995ZM33.4767 2.53328C34.5433 2.53328 35.4544 2.88884 36.21 3.59995C36.9656 4.31106 37.3433 5.19995 37.3433 6.26662C37.3433 7.33328 36.9656 8.22217 36.21 8.93328C35.4544 9.64439 34.5656 9.99995 33.5433 9.99995C32.5211 9.99995 31.6322 9.64439 30.8767 8.93328C30.1211 8.22217 29.7433 7.33328 29.7433 6.26662C29.7433 5.19995 30.1211 4.31106 30.8767 3.59995C31.6322 2.88884 32.4989 2.53328 33.4767 2.53328ZM4.94334 7.86662C4.76556 7.86662 4.58778 7.93328 4.41 8.06662C4.23222 8.19995 4.14334 8.39995 4.14334 8.66662V18.1333C4.14334 18.3111 4.23222 18.4888 4.41 18.6666C4.58778 18.8444 4.78778 18.9333 5.01 18.9333C5.23222 18.9333 5.41 18.8444 5.54333 18.6666C5.67667 18.4888 5.74334 18.3111 5.74334 18.1333V9.46662H9.07667V14.4C9.07667 14.6666 9.16556 14.8888 9.34334 15.0666C9.52111 15.2444 9.72111 15.3333 9.94334 15.3333C10.1656 15.3333 10.3656 15.2444 10.5433 15.0666C10.7211 14.8888 10.81 14.6666 10.81 14.4V8.66662C10.81 8.39995 10.7211 8.19995 10.5433 8.06662C10.3656 7.93328 10.1878 7.86662 10.01 7.86662H4.94334ZM3.34334 4.79995C3.07667 4.79995 2.85445 4.88884 2.67667 5.06662C2.49889 5.24439 2.41 5.42217 2.41 5.59995V8.66662C2.41 8.84439 2.49889 9.02217 2.67667 9.19995C2.85445 9.37773 3.07667 9.46662 3.34334 9.46662H11.61C11.8767 9.46662 12.0767 9.37773 12.21 9.19995C12.3433 9.02217 12.41 8.84439 12.41 8.66662V5.59995C12.41 5.42217 12.3433 5.24439 12.21 5.06662C12.0767 4.88884 11.8767 4.79995 11.61 4.79995H3.34334ZM4.14334 6.53328H10.81V7.86662H4.14334V6.53328ZM12.01 32.5333C12.01 32.8 11.8989 33.0444 11.6767 33.2666C11.4544 33.4888 11.21 33.6 10.9433 33.6C10.6767 33.6 10.4322 33.4888 10.21 33.2666C9.98778 33.0444 9.87667 32.7777 9.87667 32.4666C9.87667 32.1555 9.98778 31.9111 10.21 31.7333C10.4322 31.5555 10.6767 31.4666 10.9433 31.4666C11.21 31.4666 11.4544 31.5555 11.6767 31.7333C11.8989 31.9111 12.01 32.1777 12.01 32.5333ZM19.61 7.73328C19.1656 7.73328 18.7656 7.86662 18.41 8.13328L1.74334 19.6C1.38778 19.8666 1.16556 20.2444 1.07667 20.7333C0.987779 21.2222 1.07667 21.6444 1.34333 22L2.27667 23.3333C2.54334 23.6888 2.89889 23.9111 3.34334 24C3.78778 24.0888 4.23222 24 4.67667 23.7333L19.7433 13.1999L34.9433 23.7333C35.2989 24 35.7211 24.0888 36.21 24C36.6989 23.9111 37.0767 23.6888 37.3433 23.3333L38.2767 22C38.5433 21.6444 38.6322 21.2222 38.5433 20.7333C38.4544 20.2444 38.2322 19.8666 37.8767 19.6L21.21 8.13328C20.7656 7.86662 20.2322 7.73328 19.61 7.73328ZM19.7433 9.33328C19.9211 9.33328 20.0989 9.37773 20.2767 9.46662L36.81 21.0666L35.8767 22.4L20.2767 11.5999C19.9211 11.3333 19.61 11.3333 19.3433 11.5999L3.61 22.4L2.67667 21.0666L19.3433 9.46662C19.4322 9.37773 19.5656 9.33328 19.7433 9.33328Z" fill="#1A1A1A"/>
</svg>
