<svg width="41" height="40" viewBox="0 0 41 40" fill="none" xmlns="http://www.w3.org/2000/svg">
<g clip-path="url(#clip0_15_1197)">
<path d="M37.8767 4L20.6767 0.133331C19.7878 -0.133335 19.01 0.0222206 18.3434 0.599998C17.6767 1.17778 17.3434 1.91111 17.3434 2.8V6.8L12.2767 11.0667C11.9211 10.1778 11.3211 9.46667 10.4767 8.93333C9.63224 8.4 8.72113 8.13333 7.74335 8.13333C6.41002 8.13333 5.25446 8.6 4.27668 9.53333C3.29891 10.4667 2.76557 11.6444 2.67668 13.0667C1.34335 13.7778 0.498906 14.8444 0.143351 16.2667C-0.212205 17.6889 0.0100173 19.0222 0.810017 20.2667C0.276684 21.0667 0.0100173 22 0.0100173 23.0667C0.0100173 24.5778 0.587795 25.8667 1.74335 26.9333V37.2C1.74335 38 2.01002 38.6667 2.54335 39.2C3.07668 39.7333 3.74335 40 4.54335 40H37.21C38.01 40 38.6767 39.7333 39.21 39.2C39.7434 38.6667 40.01 38 40.01 37.2V6.66666C40.01 6.04444 39.81 5.48889 39.41 5C39.01 4.51111 38.4989 4.17778 37.8767 4ZM6.54335 37.6H4.54335C4.27668 37.6 4.14335 37.4667 4.14335 37.2V28C4.94335 28.1778 5.74335 28.1333 6.54335 27.8667V37.6ZM6.94335 25.0667C6.32113 25.6 5.65446 25.8444 4.94335 25.8C4.23224 25.7556 3.63224 25.4889 3.14335 25C2.65446 24.5111 2.41002 23.8667 2.41002 23.0667C2.41002 22.2667 2.67668 21.6 3.21002 21.0667C3.47668 20.8889 3.61002 20.6222 3.61002 20.2667C3.61002 19.9111 3.43224 19.6 3.07668 19.3333L2.94335 19.0667C2.32113 18.3556 2.14335 17.5556 2.41002 16.6667C2.67668 15.7778 3.29891 15.2 4.27668 14.9333C4.54335 14.8444 4.74335 14.6667 4.87668 14.4C5.01002 14.1333 5.07668 13.8667 5.07668 13.6C4.89891 12.8 5.09891 12.0889 5.67668 11.4667C6.25446 10.8444 6.94335 10.5333 7.74335 10.5333C8.54335 10.5333 9.21002 10.8444 9.74335 11.4667C10.2767 12.0889 10.4989 12.8 10.41 13.6C10.41 13.8667 10.4767 14.1333 10.61 14.4C10.7434 14.6667 10.9434 14.8444 11.21 14.9333C11.8322 15.1111 12.3211 15.4667 12.6767 16C13.0322 16.5333 13.1656 17.1111 13.0767 17.7333C12.9878 18.3556 12.7211 18.9333 12.2767 19.4667C12.01 19.6444 11.8767 19.9111 11.8767 20.2667C11.8767 20.6222 12.01 20.8889 12.2767 21.0667C12.81 21.6 13.0767 22.2444 13.0767 23C13.0767 23.7556 12.8322 24.4 12.3434 24.9333C11.8545 25.4667 11.2322 25.7556 10.4767 25.8C9.72113 25.8444 9.07668 25.6 8.54335 25.0667C8.27668 24.8889 7.9878 24.8 7.67668 24.8C7.36557 24.8 7.12113 24.8889 6.94335 25.0667ZM17.3434 37.6H8.94335V27.8667C9.92113 28.2222 10.9211 28.2222 11.9434 27.8667C12.9656 27.5111 13.81 26.9111 14.4767 26.0667C15.1434 25.2222 15.4767 24.2444 15.4767 23.1333C15.4767 22.0222 15.1656 21.0667 14.5434 20.2667C15.3434 19.1111 15.61 17.8667 15.3434 16.5333C15.0767 15.2 14.41 14.1333 13.3434 13.3333L17.3434 9.86666V37.6ZM32.5434 37.6H24.81V28.5333C24.81 28.2667 24.9434 28.1333 25.21 28.1333H32.1434C32.41 28.1333 32.5434 28.2667 32.5434 28.5333V37.6ZM37.61 37.2C37.61 37.4667 37.4767 37.6 37.21 37.6H34.81V28.5333C34.81 27.7333 34.5434 27.0667 34.01 26.5333C33.4767 26 32.8545 25.7333 32.1434 25.7333H25.21C24.4989 25.7333 23.8767 26 23.3434 26.5333C22.81 27.0667 22.5434 27.7333 22.5434 28.5333V37.6H19.7434V2.8C19.7434 2.62222 19.7878 2.48889 19.8767 2.4C19.9656 2.31111 20.0545 2.31111 20.1434 2.4L37.3434 6.26667C37.5211 6.35555 37.61 6.48889 37.61 6.66666V37.2ZM23.61 9.6C23.3434 9.6 23.0989 9.71111 22.8767 9.93333C22.6545 10.1556 22.5434 10.4444 22.5434 10.8V10.9333C22.5434 11.2 22.6545 11.4667 22.8767 11.7333C23.0989 12 23.3656 12.1333 23.6767 12.1333C23.9878 12.1333 24.2545 12 24.4767 11.7333C24.6989 11.4667 24.81 11.2 24.81 10.9333V10.8C24.81 10.4444 24.6989 10.1556 24.4767 9.93333C24.2545 9.71111 23.9656 9.6 23.61 9.6ZM28.6767 9.6C28.3211 9.6 28.0322 9.71111 27.81 9.93333C27.5878 10.1556 27.4767 10.4444 27.4767 10.8V10.9333C27.4767 11.2 27.5878 11.4667 27.81 11.7333C28.0322 12 28.3211 12.1333 28.6767 12.1333C29.0322 12.1333 29.3211 12 29.5434 11.7333C29.7656 11.4667 29.8767 11.2 29.8767 10.9333V10.8C29.8767 10.4444 29.7656 10.1556 29.5434 9.93333C29.3211 9.71111 29.0322 9.6 28.6767 9.6ZM33.61 9.6C33.3434 9.6 33.0989 9.71111 32.8767 9.93333C32.6545 10.1556 32.5434 10.4444 32.5434 10.8V10.9333C32.5434 11.2 32.6545 11.4667 32.8767 11.7333C33.0989 12 33.3656 12.1333 33.6767 12.1333C33.9878 12.1333 34.2545 12 34.4767 11.7333C34.6989 11.4667 34.81 11.2 34.81 10.9333V10.8C34.81 10.4444 34.6989 10.1556 34.4767 9.93333C34.2545 9.71111 33.9656 9.6 33.61 9.6ZM23.61 15.0667C23.3434 15.0667 23.0989 15.1778 22.8767 15.4C22.6545 15.6222 22.5434 15.9111 22.5434 16.2667V16.4C22.5434 16.7556 22.6545 17.0444 22.8767 17.2667C23.0989 17.4889 23.3656 17.6 23.6767 17.6C23.9878 17.6 24.2545 17.4889 24.4767 17.2667C24.6989 17.0444 24.81 16.7556 24.81 16.4V16.2667C24.81 15.9111 24.6989 15.6222 24.4767 15.4C24.2545 15.1778 23.9656 15.0667 23.61 15.0667ZM28.6767 15.0667C28.3211 15.0667 28.0322 15.1778 27.81 15.4C27.5878 15.6222 27.4767 15.9111 27.4767 16.2667V16.4C27.4767 16.7556 27.5878 17.0444 27.81 17.2667C28.0322 17.4889 28.3211 17.6 28.6767 17.6C29.0322 17.6 29.3211 17.4889 29.5434 17.2667C29.7656 17.0444 29.8767 16.7556 29.8767 16.4V16.2667C29.8767 15.9111 29.7656 15.6222 29.5434 15.4C29.3211 15.1778 29.0322 15.0667 28.6767 15.0667ZM33.61 15.0667C33.3434 15.0667 33.0989 15.1778 32.8767 15.4C32.6545 15.6222 32.5434 15.9111 32.5434 16.2667V16.4C32.5434 16.7556 32.6545 17.0444 32.8767 17.2667C33.0989 17.4889 33.3656 17.6 33.6767 17.6C33.9878 17.6 34.2545 17.4889 34.4767 17.2667C34.6989 17.0444 34.81 16.7556 34.81 16.4V16.2667C34.81 15.9111 34.6989 15.6222 34.4767 15.4C34.2545 15.1778 33.9656 15.0667 33.61 15.0667ZM23.61 20.8C23.3434 20.8 23.0989 20.9111 22.8767 21.1333C22.6545 21.3556 22.5434 21.6 22.5434 21.8667V22.1333C22.5434 22.4 22.6545 22.6667 22.8767 22.9333C23.0989 23.2 23.3656 23.3333 23.6767 23.3333C23.9878 23.3333 24.2545 23.2 24.4767 22.9333C24.6989 22.6667 24.81 22.4 24.81 22.1333V21.8667C24.81 21.6 24.6989 21.3556 24.4767 21.1333C24.2545 20.9111 23.9656 20.8 23.61 20.8ZM28.6767 20.8C28.3211 20.8 28.0322 20.9111 27.81 21.1333C27.5878 21.3556 27.4767 21.6 27.4767 21.8667V22.1333C27.4767 22.4 27.5878 22.6667 27.81 22.9333C28.0322 23.2 28.3211 23.3333 28.6767 23.3333C29.0322 23.3333 29.3211 23.2 29.5434 22.9333C29.7656 22.6667 29.8767 22.4 29.8767 22.1333V21.8667C29.8767 21.6 29.7656 21.3556 29.5434 21.1333C29.3211 20.9111 29.0322 20.8 28.6767 20.8ZM33.61 20.8C33.3434 20.8 33.0989 20.9111 32.8767 21.1333C32.6545 21.3556 32.5434 21.6 32.5434 21.8667V22.1333C32.5434 22.4 32.6545 22.6667 32.8767 22.9333C33.0989 23.2 33.3656 23.3333 33.6767 23.3333C33.9878 23.3333 34.2545 23.2 34.4767 22.9333C34.6989 22.6667 34.81 22.4 34.81 22.1333V21.8667C34.81 21.6 34.6989 21.3556 34.4767 21.1333C34.2545 20.9111 33.9656 20.8 33.61 20.8Z" fill="#1A1A1A"/>
</g>
<defs>
<clipPath id="clip0_15_1197">
<rect width="40.02" height="40" fill="white" transform="matrix(1 0 0 -1 0 40)"/>
</clipPath>
</defs>
</svg>
